<svg width="164" height="313" viewBox="0 0 164 313" fill="none" xmlns="http://www.w3.org/2000/svg">
<path d="M35.6325 139.702C35.356 137.766 33.6536 140.714 32.4455 140.498C24.3295 139.049 23.2054 117.741 22.8049 112.134C21.6434 95.8733 21.371 79.4293 18.2634 63.3735C18.0107 62.0678 9.3478 32.9654 4.71878 41.5427C-2.99383 55.8338 10.6635 81.8172 16.1919 93.8091C37.1051 139.173 68.2813 178.702 89.2534 223.838C98.7871 244.356 110.543 274.382 102.878 297.377C96.6261 316.132 78.7824 312.318 64.3153 307.496" stroke="white" stroke-width="3" stroke-linecap="round"/>
<path d="M49.9738 99.5456C49.9738 101.784 49.2531 96.8831 47.9023 97.6335C41.7465 101.053 44.5575 114.275 45.9901 119.146C48.8175 128.759 52.2047 121.763 52.2047 115.64C52.2047 108.816 49.4503 102.765 46.7869 96.6774C43.8359 89.9328 63.909 119.372 62.5624 112.134C60.8918 103.155 55.3261 74.7363 68.6177 95.2432C69.3238 96.3327 74.9159 107.392 74.0355 102.892C72.3682 94.3702 69.0591 85.7376 69.2551 76.9181C69.3981 70.4832 77.3349 77.6031 79.4534 79.149C85.9714 83.9055 90.9904 77.3269 92.3606 70.5442C95.8246 53.3971 89.3096 33.382 84.0745 17.3217C82.4907 12.4631 78.2925 -2.11695 78.6566 2.98028C79.2109 10.7398 83.6638 19.9023 86.146 27.042C99.5089 65.4775 116.953 101.83 137.934 136.674C146.126 150.278 155.577 163.818 161.837 178.423" stroke="white" stroke-width="3" stroke-linecap="round"/>
<path d="M67.1835 152.609C87.6304 109.162 118.108 71.6857 140.325 29.2729" stroke="white" stroke-width="3" stroke-linecap="round"/>
</svg>
